<svg xmlns="http://www.w3.org/2000/svg" viewBox="0 0 362 323" width="362" height="323">
  <defs>
    <style>
      .mi { font-family: 'Times New Roman', 'Latin Modern Math', Georgia, serif; font-style: italic; }
      .mr { font-family: 'Times New Roman', 'Latin Modern Math', Georgia, serif; }
      .val { font-family: 'SF Mono', 'Consolas', 'Liberation Mono', monospace; }
      .lbl { font-family: -apple-system, 'Segoe UI', Helvetica, sans-serif; }
    </style>
    <marker id="ah" markerWidth="7" markerHeight="5" refX="6" refY="2.5" orient="auto">
      <polygon points="0 0, 7 2.5, 0 5" fill="#888"/>
    </marker>
    <marker id="ahd" markerWidth="7" markerHeight="5" refX="2.5" refY="0" orient="auto">
      <polygon points="0 0, 5 0, 2.5 6" fill="#888"/>
    </marker>
  </defs>
<text x="54.0" y="20" text-anchor="middle" class="lbl" font-size="9" fill="#333">Indices</text>
<polyline points="24,28 20,28 20,140 24,140" fill="none" stroke="#888" stroke-width="1.2"/>
<polyline points="84,28 88,28 88,140 84,140" fill="none" stroke="#888" stroke-width="1.2"/>
<rect x="27" y="30" width="18" height="18" fill="#f8f8f8"/>
<text x="36.0" y="39.0" text-anchor="middle" dominant-baseline="central" class="val" font-size="5.5" fill="#666">61</text>
<rect x="45" y="30" width="18" height="18" fill="#f8f8f8"/>
<text x="54.0" y="39.0" text-anchor="middle" dominant-baseline="central" class="val" font-size="5.5" fill="#666">187</text>
<rect x="63" y="30" width="18" height="18" fill="#f8f8f8"/>
<text x="72.0" y="39.0" text-anchor="middle" dominant-baseline="central" class="val" font-size="5.5" fill="#666">235</text>
<rect x="27" y="48" width="18" height="18" fill="#f8f8f8"/>
<text x="36.0" y="57.0" text-anchor="middle" dominant-baseline="central" class="val" font-size="5.5" fill="#666">177</text>
<rect x="45" y="48" width="18" height="18" fill="#f8f8f8"/>
<text x="54.0" y="57.0" text-anchor="middle" dominant-baseline="central" class="val" font-size="5.5" fill="#666">77</text>
<rect x="63" y="48" width="18" height="18" fill="#f8f8f8"/>
<text x="72.0" y="57.0" text-anchor="middle" dominant-baseline="central" class="val" font-size="5.5" fill="#666">116</text>
<rect x="27" y="66" width="18" height="18" fill="#f8f8f8"/>
<text x="36.0" y="75.0" text-anchor="middle" dominant-baseline="central" class="val" font-size="5.5" fill="#666">119</text>
<rect x="45" y="66" width="18" height="18" fill="#f8f8f8"/>
<text x="54.0" y="75.0" text-anchor="middle" dominant-baseline="central" class="val" font-size="5.5" fill="#666">202</text>
<rect x="63" y="66" width="18" height="18" fill="#f8f8f8"/>
<text x="72.0" y="75.0" text-anchor="middle" dominant-baseline="central" class="val" font-size="5.5" fill="#666">136</text>
<rect x="27" y="84" width="18" height="18" fill="#f8f8f8"/>
<text x="36.0" y="93.0" text-anchor="middle" dominant-baseline="central" class="val" font-size="5.5" fill="#666">161</text>
<rect x="45" y="84" width="18" height="18" fill="#f8f8f8"/>
<text x="54.0" y="93.0" text-anchor="middle" dominant-baseline="central" class="val" font-size="5.5" fill="#666">75</text>
<rect x="63" y="84" width="18" height="18" fill="#f8f8f8"/>
<text x="72.0" y="93.0" text-anchor="middle" dominant-baseline="central" class="val" font-size="5.5" fill="#666">226</text>
<rect x="27" y="102" width="18" height="18" fill="#f8f8f8"/>
<text x="36.0" y="111.0" text-anchor="middle" dominant-baseline="central" class="val" font-size="5.5" fill="#666">34</text>
<rect x="45" y="102" width="18" height="18" fill="#f8f8f8"/>
<text x="54.0" y="111.0" text-anchor="middle" dominant-baseline="central" class="val" font-size="5.5" fill="#666">0</text>
<rect x="63" y="102" width="18" height="18" fill="#f8f8f8"/>
<text x="72.0" y="111.0" text-anchor="middle" dominant-baseline="central" class="val" font-size="5.5" fill="#666">39</text>
<rect x="27" y="120" width="18" height="18" fill="#f8f8f8"/>
<text x="36.0" y="129.0" text-anchor="middle" dominant-baseline="central" class="val" font-size="5.5" fill="#666">63</text>
<rect x="45" y="120" width="18" height="18" fill="#f8f8f8"/>
<text x="54.0" y="129.0" text-anchor="middle" dominant-baseline="central" class="val" font-size="5.5" fill="#666">149</text>
<rect x="63" y="120" width="18" height="18" fill="#f8f8f8"/>
<text x="72.0" y="129.0" text-anchor="middle" dominant-baseline="central" class="val" font-size="5.5" fill="#666">59</text>
<text x="122.0" y="20.0" text-anchor="middle" class="lbl" font-size="9" fill="#333">Codebook</text>
<rect x="94" y="30.0" width="56" height="108" fill="none" stroke="#d4c86a" stroke-width="1.2" rx="2"/>
<rect x="94" y="30.0" width="20" height="18" fill="#f5f0d0"/>
<text x="104.0" y="39.0" text-anchor="middle" dominant-baseline="central" class="val" font-size="6" fill="#998800">0</text>
<rect x="114" y="30.0" width="18" height="18" fill="#fefce8"/>
<text x="123.0" y="39.0" text-anchor="middle" dominant-baseline="central" class="val" font-size="5.5" fill="#666">0.06</text>
<rect x="132" y="30.0" width="18" height="18" fill="#fefce8"/>
<text x="141.0" y="39.0" text-anchor="middle" dominant-baseline="central" class="val" font-size="5.5" fill="#666">-0.59</text>
<line x1="114" y1="30.0" x2="114" y2="48.0" stroke="#d4c86a" stroke-width="0.6"/>
<line x1="94" y1="48.0" x2="150" y2="48.0" stroke="#d4c86a" stroke-width="0.6"/>
<rect x="94" y="48.0" width="20" height="18" fill="#f5f0d0"/>
<text x="104.0" y="57.0" text-anchor="middle" dominant-baseline="central" class="val" font-size="6" fill="#998800">1</text>
<rect x="114" y="48.0" width="18" height="18" fill="#fefce8"/>
<text x="123.0" y="57.0" text-anchor="middle" dominant-baseline="central" class="val" font-size="5.5" fill="#666">-0.40</text>
<rect x="132" y="48.0" width="18" height="18" fill="#fefce8"/>
<text x="141.0" y="57.0" text-anchor="middle" dominant-baseline="central" class="val" font-size="5.5" fill="#666">0.06</text>
<line x1="114" y1="48.0" x2="114" y2="66.0" stroke="#d4c86a" stroke-width="0.6"/>
<line x1="94" y1="66.0" x2="150" y2="66.0" stroke="#d4c86a" stroke-width="0.6"/>
<rect x="94" y="66.0" width="20" height="18" fill="#f5f0d0"/>
<text x="104.0" y="75.0" text-anchor="middle" dominant-baseline="central" class="val" font-size="6" fill="#998800">2</text>
<rect x="114" y="66.0" width="18" height="18" fill="#fefce8"/>
<text x="123.0" y="75.0" text-anchor="middle" dominant-baseline="central" class="val" font-size="5.5" fill="#666">0.22</text>
<rect x="132" y="66.0" width="18" height="18" fill="#fefce8"/>
<text x="141.0" y="75.0" text-anchor="middle" dominant-baseline="central" class="val" font-size="5.5" fill="#666">0.05</text>
<line x1="114" y1="66.0" x2="114" y2="84.0" stroke="#d4c86a" stroke-width="0.6"/>
<line x1="94" y1="84.0" x2="150" y2="84.0" stroke="#d4c86a" stroke-width="0.6"/>
<rect x="94" y="84.0" width="20" height="18" fill="#f5f0d0"/>
<text x="104.0" y="93.0" text-anchor="middle" dominant-baseline="central" class="val" font-size="6" fill="#998800">3</text>
<rect x="114" y="84.0" width="18" height="18" fill="#fefce8"/>
<text x="123.0" y="93.0" text-anchor="middle" dominant-baseline="central" class="val" font-size="5.5" fill="#666">-0.03</text>
<rect x="132" y="84.0" width="18" height="18" fill="#fefce8"/>
<text x="141.0" y="93.0" text-anchor="middle" dominant-baseline="central" class="val" font-size="5.5" fill="#666">-0.09</text>
<line x1="114" y1="84.0" x2="114" y2="102.0" stroke="#d4c86a" stroke-width="0.6"/>
<line x1="94" y1="102.0" x2="150" y2="102.0" stroke="#d4c86a" stroke-width="0.6"/>
<rect x="94" y="102.0" width="20" height="18" fill="#f5f0d0"/>
<text x="104.0" y="111.0" text-anchor="middle" dominant-baseline="central" class="val" font-size="6" fill="#998800">4</text>
<rect x="114" y="102.0" width="18" height="18" fill="#fefce8"/>
<text x="123.0" y="111.0" text-anchor="middle" dominant-baseline="central" class="val" font-size="5.5" fill="#666">-0.44</text>
<rect x="132" y="102.0" width="18" height="18" fill="#fefce8"/>
<text x="141.0" y="111.0" text-anchor="middle" dominant-baseline="central" class="val" font-size="5.5" fill="#666">-0.22</text>
<line x1="114" y1="102.0" x2="114" y2="120.0" stroke="#d4c86a" stroke-width="0.6"/>
<line x1="94" y1="120.0" x2="150" y2="120.0" stroke="#d4c86a" stroke-width="0.6"/>
<rect x="94" y="120.0" width="20" height="18" fill="#f5f0d0"/>
<text x="104.0" y="129.0" text-anchor="middle" dominant-baseline="central" class="mr" font-size="8" fill="#999">⋮</text>
<rect x="114" y="120.0" width="36" height="18" fill="#fefce8"/>
<text x="132.0" y="129.0" text-anchor="middle" dominant-baseline="central" class="mr" font-size="8" fill="#999">⋯</text>
<line x1="114" y1="120.0" x2="114" y2="138.0" stroke="#d4c86a" stroke-width="0.6"/>
<line x1="160" y1="84.0" x2="210" y2="84.0" stroke="#888" stroke-width="1" stroke-dasharray="3,2" marker-end="url(#ah)"/>
<text x="185.0" y="77.0" text-anchor="middle" class="lbl" font-size="9" fill="#999">expand</text>
<text x="281.0" y="20" text-anchor="middle" class="mi" font-size="11" fill="#333">Ŵ</text>
<polyline points="224,28 220,28 220,140 224,140" fill="none" stroke="#888" stroke-width="1.2"/>
<polyline points="338,28 342,28 342,140 338,140" fill="none" stroke="#888" stroke-width="1.2"/>
<rect x="227" y="30" width="18" height="18" fill="#f3f4f6"/>
<text x="236.0" y="39.0" text-anchor="middle" dominant-baseline="central" class="val" font-size="5.5" fill="#555">-0.36</text>
<rect x="245" y="30" width="18" height="18" fill="#f3f4f6"/>
<text x="254.0" y="39.0" text-anchor="middle" dominant-baseline="central" class="val" font-size="5.5" fill="#555">0.20</text>
<rect x="263" y="30" width="18" height="18" fill="#f3f4f6"/>
<text x="272.0" y="39.0" text-anchor="middle" dominant-baseline="central" class="val" font-size="5.5" fill="#555">0.21</text>
<rect x="281" y="30" width="18" height="18" fill="#f3f4f6"/>
<text x="290.0" y="39.0" text-anchor="middle" dominant-baseline="central" class="val" font-size="5.5" fill="#555">-0.34</text>
<rect x="299" y="30" width="18" height="18" fill="#f3f4f6"/>
<text x="308.0" y="39.0" text-anchor="middle" dominant-baseline="central" class="val" font-size="5.5" fill="#555">-0.18</text>
<rect x="317" y="30" width="18" height="18" fill="#f3f4f6"/>
<text x="326.0" y="39.0" text-anchor="middle" dominant-baseline="central" class="val" font-size="5.5" fill="#555">-0.26</text>
<rect x="227" y="48" width="18" height="18" fill="#f3f4f6"/>
<text x="236.0" y="57.0" text-anchor="middle" dominant-baseline="central" class="val" font-size="5.5" fill="#555">-0.27</text>
<rect x="245" y="48" width="18" height="18" fill="#f3f4f6"/>
<text x="254.0" y="57.0" text-anchor="middle" dominant-baseline="central" class="val" font-size="5.5" fill="#555">0.15</text>
<rect x="263" y="48" width="18" height="18" fill="#f3f4f6"/>
<text x="272.0" y="57.0" text-anchor="middle" dominant-baseline="central" class="val" font-size="5.5" fill="#555">-0.13</text>
<rect x="281" y="48" width="18" height="18" fill="#f3f4f6"/>
<text x="290.0" y="57.0" text-anchor="middle" dominant-baseline="central" class="val" font-size="5.5" fill="#555">0.26</text>
<rect x="299" y="48" width="18" height="18" fill="#f3f4f6"/>
<text x="308.0" y="57.0" text-anchor="middle" dominant-baseline="central" class="val" font-size="5.5" fill="#555">-0.13</text>
<rect x="317" y="48" width="18" height="18" fill="#f3f4f6"/>
<text x="326.0" y="57.0" text-anchor="middle" dominant-baseline="central" class="val" font-size="5.5" fill="#555">0.04</text>
<rect x="227" y="66" width="18" height="18" fill="#f3f4f6"/>
<text x="236.0" y="75.0" text-anchor="middle" dominant-baseline="central" class="val" font-size="5.5" fill="#555">-0.29</text>
<rect x="245" y="66" width="18" height="18" fill="#f3f4f6"/>
<text x="254.0" y="75.0" text-anchor="middle" dominant-baseline="central" class="val" font-size="5.5" fill="#555">0.14</text>
<rect x="263" y="66" width="18" height="18" fill="#f3f4f6"/>
<text x="272.0" y="75.0" text-anchor="middle" dominant-baseline="central" class="val" font-size="5.5" fill="#555">0.12</text>
<rect x="281" y="66" width="18" height="18" fill="#f3f4f6"/>
<text x="290.0" y="75.0" text-anchor="middle" dominant-baseline="central" class="val" font-size="5.5" fill="#555">-0.01</text>
<rect x="299" y="66" width="18" height="18" fill="#f3f4f6"/>
<text x="308.0" y="75.0" text-anchor="middle" dominant-baseline="central" class="val" font-size="5.5" fill="#555">0.16</text>
<rect x="317" y="66" width="18" height="18" fill="#f3f4f6"/>
<text x="326.0" y="75.0" text-anchor="middle" dominant-baseline="central" class="val" font-size="5.5" fill="#555">-0.06</text>
<rect x="227" y="84" width="18" height="18" fill="#f3f4f6"/>
<text x="236.0" y="93.0" text-anchor="middle" dominant-baseline="central" class="val" font-size="5.5" fill="#555">0.10</text>
<rect x="245" y="84" width="18" height="18" fill="#f3f4f6"/>
<text x="254.0" y="93.0" text-anchor="middle" dominant-baseline="central" class="val" font-size="5.5" fill="#555">-0.25</text>
<rect x="263" y="84" width="18" height="18" fill="#f3f4f6"/>
<text x="272.0" y="93.0" text-anchor="middle" dominant-baseline="central" class="val" font-size="5.5" fill="#555">0.14</text>
<rect x="281" y="84" width="18" height="18" fill="#f3f4f6"/>
<text x="290.0" y="93.0" text-anchor="middle" dominant-baseline="central" class="val" font-size="5.5" fill="#555">-0.02</text>
<rect x="299" y="84" width="18" height="18" fill="#f3f4f6"/>
<text x="308.0" y="93.0" text-anchor="middle" dominant-baseline="central" class="val" font-size="5.5" fill="#555">0.51</text>
<rect x="317" y="84" width="18" height="18" fill="#f3f4f6"/>
<text x="326.0" y="93.0" text-anchor="middle" dominant-baseline="central" class="val" font-size="5.5" fill="#555">0.26</text>
<rect x="227" y="102" width="18" height="18" fill="#f3f4f6"/>
<text x="236.0" y="111.0" text-anchor="middle" dominant-baseline="central" class="val" font-size="5.5" fill="#555">-0.05</text>
<rect x="245" y="102" width="18" height="18" fill="#f3f4f6"/>
<text x="254.0" y="111.0" text-anchor="middle" dominant-baseline="central" class="val" font-size="5.5" fill="#555">0.12</text>
<rect x="263" y="102" width="18" height="18" fill="#f3f4f6"/>
<text x="272.0" y="111.0" text-anchor="middle" dominant-baseline="central" class="val" font-size="5.5" fill="#555">0.06</text>
<rect x="281" y="102" width="18" height="18" fill="#f3f4f6"/>
<text x="290.0" y="111.0" text-anchor="middle" dominant-baseline="central" class="val" font-size="5.5" fill="#555">-0.59</text>
<rect x="299" y="102" width="18" height="18" fill="#f3f4f6"/>
<text x="308.0" y="111.0" text-anchor="middle" dominant-baseline="central" class="val" font-size="5.5" fill="#555">-0.06</text>
<rect x="317" y="102" width="18" height="18" fill="#f3f4f6"/>
<text x="326.0" y="111.0" text-anchor="middle" dominant-baseline="central" class="val" font-size="5.5" fill="#555">0.09</text>
<rect x="227" y="120" width="18" height="18" fill="#f3f4f6"/>
<text x="236.0" y="129.0" text-anchor="middle" dominant-baseline="central" class="val" font-size="5.5" fill="#555">0.35</text>
<rect x="245" y="120" width="18" height="18" fill="#f3f4f6"/>
<text x="254.0" y="129.0" text-anchor="middle" dominant-baseline="central" class="val" font-size="5.5" fill="#555">-0.25</text>
<rect x="263" y="120" width="18" height="18" fill="#f3f4f6"/>
<text x="272.0" y="129.0" text-anchor="middle" dominant-baseline="central" class="val" font-size="5.5" fill="#555">0.29</text>
<rect x="281" y="120" width="18" height="18" fill="#f3f4f6"/>
<text x="290.0" y="129.0" text-anchor="middle" dominant-baseline="central" class="val" font-size="5.5" fill="#555">-0.04</text>
<rect x="299" y="120" width="18" height="18" fill="#f3f4f6"/>
<text x="308.0" y="129.0" text-anchor="middle" dominant-baseline="central" class="val" font-size="5.5" fill="#555">0.09</text>
<rect x="317" y="120" width="18" height="18" fill="#f3f4f6"/>
<text x="326.0" y="129.0" text-anchor="middle" dominant-baseline="central" class="val" font-size="5.5" fill="#555">-0.21</text>
<line x1="281.0" y1="148" x2="281.0" y2="175" stroke="#888" stroke-width="1" stroke-dasharray="3,2" marker-end="url(#ah)"/>
<text x="291.0" y="161.5" text-anchor="start" dominant-baseline="central" class="lbl" font-size="9" fill="#999">patch</text>
<polyline points="224,181 220,181 220,293 224,293" fill="none" stroke="#888" stroke-width="1.2"/>
<polyline points="338,181 342,181 342,293 338,293" fill="none" stroke="#888" stroke-width="1.2"/>
<text x="236.0" y="192.0" text-anchor="middle" dominant-baseline="central" class="val" font-size="5.5" fill="#ccc">0</text>
<text x="254.0" y="192.0" text-anchor="middle" dominant-baseline="central" class="val" font-size="5.5" fill="#ccc">0</text>
<rect x="263" y="183" width="18" height="18" fill="#dbeafe"/>
<text x="272.0" y="192.0" text-anchor="middle" dominant-baseline="central" class="val" font-size="5.5" fill="#2563eb">0.19</text>
<text x="290.0" y="192.0" text-anchor="middle" dominant-baseline="central" class="val" font-size="5.5" fill="#ccc">0</text>
<text x="308.0" y="192.0" text-anchor="middle" dominant-baseline="central" class="val" font-size="5.5" fill="#ccc">0</text>
<text x="326.0" y="192.0" text-anchor="middle" dominant-baseline="central" class="val" font-size="5.5" fill="#ccc">0</text>
<text x="236.0" y="210.0" text-anchor="middle" dominant-baseline="central" class="val" font-size="5.5" fill="#ccc">0</text>
<text x="254.0" y="210.0" text-anchor="middle" dominant-baseline="central" class="val" font-size="5.5" fill="#ccc">0</text>
<text x="272.0" y="210.0" text-anchor="middle" dominant-baseline="central" class="val" font-size="5.5" fill="#ccc">0</text>
<text x="290.0" y="210.0" text-anchor="middle" dominant-baseline="central" class="val" font-size="5.5" fill="#ccc">0</text>
<text x="308.0" y="210.0" text-anchor="middle" dominant-baseline="central" class="val" font-size="5.5" fill="#ccc">0</text>
<rect x="317" y="201" width="18" height="18" fill="#dbeafe"/>
<text x="326.0" y="210.0" text-anchor="middle" dominant-baseline="central" class="val" font-size="5.5" fill="#2563eb">-0.14</text>
<text x="236.0" y="228.0" text-anchor="middle" dominant-baseline="central" class="val" font-size="5.5" fill="#ccc">0</text>
<text x="254.0" y="228.0" text-anchor="middle" dominant-baseline="central" class="val" font-size="5.5" fill="#ccc">0</text>
<text x="272.0" y="228.0" text-anchor="middle" dominant-baseline="central" class="val" font-size="5.5" fill="#ccc">0</text>
<text x="290.0" y="228.0" text-anchor="middle" dominant-baseline="central" class="val" font-size="5.5" fill="#ccc">0</text>
<text x="308.0" y="228.0" text-anchor="middle" dominant-baseline="central" class="val" font-size="5.5" fill="#ccc">0</text>
<text x="326.0" y="228.0" text-anchor="middle" dominant-baseline="central" class="val" font-size="5.5" fill="#ccc">0</text>
<rect x="227" y="237" width="18" height="18" fill="#dbeafe"/>
<text x="236.0" y="246.0" text-anchor="middle" dominant-baseline="central" class="val" font-size="5.5" fill="#2563eb">-0.27</text>
<text x="254.0" y="246.0" text-anchor="middle" dominant-baseline="central" class="val" font-size="5.5" fill="#ccc">0</text>
<text x="272.0" y="246.0" text-anchor="middle" dominant-baseline="central" class="val" font-size="5.5" fill="#ccc">0</text>
<text x="290.0" y="246.0" text-anchor="middle" dominant-baseline="central" class="val" font-size="5.5" fill="#ccc">0</text>
<text x="308.0" y="246.0" text-anchor="middle" dominant-baseline="central" class="val" font-size="5.5" fill="#ccc">0</text>
<text x="326.0" y="246.0" text-anchor="middle" dominant-baseline="central" class="val" font-size="5.5" fill="#ccc">0</text>
<text x="236.0" y="264.0" text-anchor="middle" dominant-baseline="central" class="val" font-size="5.5" fill="#ccc">0</text>
<text x="254.0" y="264.0" text-anchor="middle" dominant-baseline="central" class="val" font-size="5.5" fill="#ccc">0</text>
<text x="272.0" y="264.0" text-anchor="middle" dominant-baseline="central" class="val" font-size="5.5" fill="#ccc">0</text>
<text x="290.0" y="264.0" text-anchor="middle" dominant-baseline="central" class="val" font-size="5.5" fill="#ccc">0</text>
<rect x="299" y="255" width="18" height="18" fill="#dbeafe"/>
<text x="308.0" y="264.0" text-anchor="middle" dominant-baseline="central" class="val" font-size="5.5" fill="#2563eb">-0.18</text>
<text x="326.0" y="264.0" text-anchor="middle" dominant-baseline="central" class="val" font-size="5.5" fill="#ccc">0</text>
<text x="236.0" y="282.0" text-anchor="middle" dominant-baseline="central" class="val" font-size="5.5" fill="#ccc">0</text>
<text x="254.0" y="282.0" text-anchor="middle" dominant-baseline="central" class="val" font-size="5.5" fill="#ccc">0</text>
<text x="272.0" y="282.0" text-anchor="middle" dominant-baseline="central" class="val" font-size="5.5" fill="#ccc">0</text>
<rect x="281" y="273" width="18" height="18" fill="#dbeafe"/>
<text x="290.0" y="282.0" text-anchor="middle" dominant-baseline="central" class="val" font-size="5.5" fill="#2563eb">-0.32</text>
<text x="308.0" y="282.0" text-anchor="middle" dominant-baseline="central" class="val" font-size="5.5" fill="#ccc">0</text>
<text x="326.0" y="282.0" text-anchor="middle" dominant-baseline="central" class="val" font-size="5.5" fill="#ccc">0</text>
<text x="281.0" y="308" text-anchor="middle" class="lbl" font-size="9" fill="#333">Sparse Patches</text>
<text x="181.0" y="237.0" text-anchor="middle" dominant-baseline="central" class="mr" font-size="18" fill="#555">=</text>
<polyline points="24,181 20,181 20,293 24,293" fill="none" stroke="#888" stroke-width="1.2"/>
<polyline points="138,181 142,181 142,293 138,293" fill="none" stroke="#888" stroke-width="1.2"/>
<rect x="27" y="183" width="18" height="18" fill="#f3f4f6"/>
<text x="36.0" y="192.0" text-anchor="middle" dominant-baseline="central" class="val" font-size="5.5" fill="#555">-0.36</text>
<rect x="45" y="183" width="18" height="18" fill="#f3f4f6"/>
<text x="54.0" y="192.0" text-anchor="middle" dominant-baseline="central" class="val" font-size="5.5" fill="#555">0.20</text>
<rect x="63" y="183" width="18" height="18" fill="#dbeafe"/>
<text x="72.0" y="192.0" text-anchor="middle" dominant-baseline="central" class="val" font-size="5.5" fill="#2563eb">0.19</text>
<rect x="81" y="183" width="18" height="18" fill="#f3f4f6"/>
<text x="90.0" y="192.0" text-anchor="middle" dominant-baseline="central" class="val" font-size="5.5" fill="#555">-0.34</text>
<rect x="99" y="183" width="18" height="18" fill="#f3f4f6"/>
<text x="108.0" y="192.0" text-anchor="middle" dominant-baseline="central" class="val" font-size="5.5" fill="#555">-0.18</text>
<rect x="117" y="183" width="18" height="18" fill="#f3f4f6"/>
<text x="126.0" y="192.0" text-anchor="middle" dominant-baseline="central" class="val" font-size="5.5" fill="#555">-0.26</text>
<rect x="27" y="201" width="18" height="18" fill="#f3f4f6"/>
<text x="36.0" y="210.0" text-anchor="middle" dominant-baseline="central" class="val" font-size="5.5" fill="#555">-0.27</text>
<rect x="45" y="201" width="18" height="18" fill="#f3f4f6"/>
<text x="54.0" y="210.0" text-anchor="middle" dominant-baseline="central" class="val" font-size="5.5" fill="#555">0.15</text>
<rect x="63" y="201" width="18" height="18" fill="#f3f4f6"/>
<text x="72.0" y="210.0" text-anchor="middle" dominant-baseline="central" class="val" font-size="5.5" fill="#555">-0.13</text>
<rect x="81" y="201" width="18" height="18" fill="#f3f4f6"/>
<text x="90.0" y="210.0" text-anchor="middle" dominant-baseline="central" class="val" font-size="5.5" fill="#555">0.26</text>
<rect x="99" y="201" width="18" height="18" fill="#f3f4f6"/>
<text x="108.0" y="210.0" text-anchor="middle" dominant-baseline="central" class="val" font-size="5.5" fill="#555">-0.13</text>
<rect x="117" y="201" width="18" height="18" fill="#dbeafe"/>
<text x="126.0" y="210.0" text-anchor="middle" dominant-baseline="central" class="val" font-size="5.5" fill="#2563eb">-0.14</text>
<rect x="27" y="219" width="18" height="18" fill="#f3f4f6"/>
<text x="36.0" y="228.0" text-anchor="middle" dominant-baseline="central" class="val" font-size="5.5" fill="#555">-0.29</text>
<rect x="45" y="219" width="18" height="18" fill="#f3f4f6"/>
<text x="54.0" y="228.0" text-anchor="middle" dominant-baseline="central" class="val" font-size="5.5" fill="#555">0.14</text>
<rect x="63" y="219" width="18" height="18" fill="#f3f4f6"/>
<text x="72.0" y="228.0" text-anchor="middle" dominant-baseline="central" class="val" font-size="5.5" fill="#555">0.12</text>
<rect x="81" y="219" width="18" height="18" fill="#f3f4f6"/>
<text x="90.0" y="228.0" text-anchor="middle" dominant-baseline="central" class="val" font-size="5.5" fill="#555">-0.01</text>
<rect x="99" y="219" width="18" height="18" fill="#f3f4f6"/>
<text x="108.0" y="228.0" text-anchor="middle" dominant-baseline="central" class="val" font-size="5.5" fill="#555">0.16</text>
<rect x="117" y="219" width="18" height="18" fill="#f3f4f6"/>
<text x="126.0" y="228.0" text-anchor="middle" dominant-baseline="central" class="val" font-size="5.5" fill="#555">-0.06</text>
<rect x="27" y="237" width="18" height="18" fill="#dbeafe"/>
<text x="36.0" y="246.0" text-anchor="middle" dominant-baseline="central" class="val" font-size="5.5" fill="#2563eb">-0.27</text>
<rect x="45" y="237" width="18" height="18" fill="#f3f4f6"/>
<text x="54.0" y="246.0" text-anchor="middle" dominant-baseline="central" class="val" font-size="5.5" fill="#555">-0.25</text>
<rect x="63" y="237" width="18" height="18" fill="#f3f4f6"/>
<text x="72.0" y="246.0" text-anchor="middle" dominant-baseline="central" class="val" font-size="5.5" fill="#555">0.14</text>
<rect x="81" y="237" width="18" height="18" fill="#f3f4f6"/>
<text x="90.0" y="246.0" text-anchor="middle" dominant-baseline="central" class="val" font-size="5.5" fill="#555">-0.02</text>
<rect x="99" y="237" width="18" height="18" fill="#f3f4f6"/>
<text x="108.0" y="246.0" text-anchor="middle" dominant-baseline="central" class="val" font-size="5.5" fill="#555">0.51</text>
<rect x="117" y="237" width="18" height="18" fill="#f3f4f6"/>
<text x="126.0" y="246.0" text-anchor="middle" dominant-baseline="central" class="val" font-size="5.5" fill="#555">0.26</text>
<rect x="27" y="255" width="18" height="18" fill="#f3f4f6"/>
<text x="36.0" y="264.0" text-anchor="middle" dominant-baseline="central" class="val" font-size="5.5" fill="#555">-0.05</text>
<rect x="45" y="255" width="18" height="18" fill="#f3f4f6"/>
<text x="54.0" y="264.0" text-anchor="middle" dominant-baseline="central" class="val" font-size="5.5" fill="#555">0.12</text>
<rect x="63" y="255" width="18" height="18" fill="#f3f4f6"/>
<text x="72.0" y="264.0" text-anchor="middle" dominant-baseline="central" class="val" font-size="5.5" fill="#555">0.06</text>
<rect x="81" y="255" width="18" height="18" fill="#f3f4f6"/>
<text x="90.0" y="264.0" text-anchor="middle" dominant-baseline="central" class="val" font-size="5.5" fill="#555">-0.59</text>
<rect x="99" y="255" width="18" height="18" fill="#dbeafe"/>
<text x="108.0" y="264.0" text-anchor="middle" dominant-baseline="central" class="val" font-size="5.5" fill="#2563eb">-0.18</text>
<rect x="117" y="255" width="18" height="18" fill="#f3f4f6"/>
<text x="126.0" y="264.0" text-anchor="middle" dominant-baseline="central" class="val" font-size="5.5" fill="#555">0.09</text>
<rect x="27" y="273" width="18" height="18" fill="#f3f4f6"/>
<text x="36.0" y="282.0" text-anchor="middle" dominant-baseline="central" class="val" font-size="5.5" fill="#555">0.35</text>
<rect x="45" y="273" width="18" height="18" fill="#f3f4f6"/>
<text x="54.0" y="282.0" text-anchor="middle" dominant-baseline="central" class="val" font-size="5.5" fill="#555">-0.25</text>
<rect x="63" y="273" width="18" height="18" fill="#f3f4f6"/>
<text x="72.0" y="282.0" text-anchor="middle" dominant-baseline="central" class="val" font-size="5.5" fill="#555">0.29</text>
<rect x="81" y="273" width="18" height="18" fill="#dbeafe"/>
<text x="90.0" y="282.0" text-anchor="middle" dominant-baseline="central" class="val" font-size="5.5" fill="#2563eb">-0.32</text>
<rect x="99" y="273" width="18" height="18" fill="#f3f4f6"/>
<text x="108.0" y="282.0" text-anchor="middle" dominant-baseline="central" class="val" font-size="5.5" fill="#555">0.09</text>
<rect x="117" y="273" width="18" height="18" fill="#f3f4f6"/>
<text x="126.0" y="282.0" text-anchor="middle" dominant-baseline="central" class="val" font-size="5.5" fill="#555">-0.21</text>
<text x="81.0" y="308" text-anchor="middle" class="lbl" font-size="9" fill="#333">Ŵ patched</text>
</svg>