<svg xmlns="http://www.w3.org/2000/svg" viewBox="0 0 486 299" style="max-width: 526px;">
  <defs>
    <style>
      .mi { font-family: 'Times New Roman', 'Latin Modern Math', Georgia, serif; font-style: italic; }
      .mr { font-family: 'Times New Roman', 'Latin Modern Math', Georgia, serif; }
      .val { font-family: 'SF Mono', 'Consolas', 'Liberation Mono', monospace; }
    </style>
  </defs>
<text x="142.0" y="33" text-anchor="middle" class="mi" font-size="22" fill="#333">W</text>
<polyline points="25,51 18,51 18,283 25,283" fill="none" stroke="#888" stroke-width="1.8"/>
<polyline points="259,51 266,51 266,283 259,283" fill="none" stroke="#888" stroke-width="1.8"/>
<rect x="30" y="55" width="28" height="28" fill="rgb(255,244,244)"/>
<text x="44.0" y="69.0" text-anchor="middle" dominant-baseline="central" class="val" font-size="7.5" fill="#333">0.15</text>
<rect x="58" y="55" width="28" height="28" fill="rgb(255,250,250)"/>
<text x="72.0" y="69.0" text-anchor="middle" dominant-baseline="central" class="val" font-size="7.5" fill="#333">-0.04</text>
<rect x="86" y="55" width="28" height="28" fill="rgb(255,138,138)"/>
<text x="100.0" y="69.0" text-anchor="middle" dominant-baseline="central" class="val" font-size="7.5" fill="#333">0.19</text>
<rect x="114" y="55" width="28" height="28" fill="rgb(255,204,204)"/>
<text x="128.0" y="69.0" text-anchor="middle" dominant-baseline="central" class="val" font-size="7.5" fill="#333">0.46</text>
<rect x="142" y="55" width="28" height="28" fill="rgb(255,248,248)"/>
<text x="156.0" y="69.0" text-anchor="middle" dominant-baseline="central" class="val" font-size="7.5" fill="#333">-0.07</text>
<rect x="170" y="55" width="28" height="28" fill="rgb(255,238,238)"/>
<text x="184.0" y="69.0" text-anchor="middle" dominant-baseline="central" class="val" font-size="7.5" fill="#333">-0.07</text>
<rect x="198" y="55" width="28" height="28" fill="rgb(255,183,183)"/>
<text x="212.0" y="69.0" text-anchor="middle" dominant-baseline="central" class="val" font-size="7.5" fill="#333">0.47</text>
<rect x="226" y="55" width="28" height="28" fill="rgb(255,245,245)"/>
<text x="240.0" y="69.0" text-anchor="middle" dominant-baseline="central" class="val" font-size="7.5" fill="#333">0.23</text>
<rect x="30" y="83" width="28" height="28" fill="rgb(255,245,245)"/>
<text x="44.0" y="97.0" text-anchor="middle" dominant-baseline="central" class="val" font-size="7.5" fill="#333">-0.14</text>
<rect x="58" y="83" width="28" height="28" fill="rgb(255,246,246)"/>
<text x="72.0" y="97.0" text-anchor="middle" dominant-baseline="central" class="val" font-size="7.5" fill="#333">0.16</text>
<rect x="86" y="83" width="28" height="28" fill="rgb(255,200,200)"/>
<text x="100.0" y="97.0" text-anchor="middle" dominant-baseline="central" class="val" font-size="7.5" fill="#333">-0.14</text>
<rect x="114" y="83" width="28" height="28" fill="rgb(255,246,246)"/>
<text x="128.0" y="97.0" text-anchor="middle" dominant-baseline="central" class="val" font-size="7.5" fill="#333">-0.14</text>
<rect x="142" y="83" width="28" height="28" fill="rgb(255,248,248)"/>
<text x="156.0" y="97.0" text-anchor="middle" dominant-baseline="central" class="val" font-size="7.5" fill="#333">0.07</text>
<rect x="170" y="83" width="28" height="28" fill="rgb(255,30,30)"/>
<text x="184.0" y="97.0" text-anchor="middle" dominant-baseline="central" class="val" font-size="7.5" fill="#fff">-0.57</text>
<rect x="198" y="83" width="28" height="28" fill="rgb(255,167,167)"/>
<text x="212.0" y="97.0" text-anchor="middle" dominant-baseline="central" class="val" font-size="7.5" fill="#333">-0.52</text>
<rect x="226" y="83" width="28" height="28" fill="rgb(255,247,247)"/>
<text x="240.0" y="97.0" text-anchor="middle" dominant-baseline="central" class="val" font-size="7.5" fill="#333">-0.17</text>
<rect x="30" y="111" width="28" height="28" fill="rgb(255,224,224)"/>
<text x="44.0" y="125.0" text-anchor="middle" dominant-baseline="central" class="val" font-size="7.5" fill="#333">-0.30</text>
<rect x="58" y="111" width="28" height="28" fill="rgb(255,249,249)"/>
<text x="72.0" y="125.0" text-anchor="middle" dominant-baseline="central" class="val" font-size="7.5" fill="#333">0.09</text>
<rect x="86" y="111" width="28" height="28" fill="rgb(255,62,62)"/>
<text x="100.0" y="125.0" text-anchor="middle" dominant-baseline="central" class="val" font-size="7.5" fill="#fff">-0.27</text>
<rect x="114" y="111" width="28" height="28" fill="rgb(255,212,212)"/>
<text x="128.0" y="125.0" text-anchor="middle" dominant-baseline="central" class="val" font-size="7.5" fill="#333">-0.42</text>
<rect x="142" y="111" width="28" height="28" fill="rgb(255,154,154)"/>
<text x="156.0" y="125.0" text-anchor="middle" dominant-baseline="central" class="val" font-size="7.5" fill="#333">0.44</text>
<rect x="170" y="111" width="28" height="28" fill="rgb(255,239,239)"/>
<text x="184.0" y="125.0" text-anchor="middle" dominant-baseline="central" class="val" font-size="7.5" fill="#333">-0.07</text>
<rect x="198" y="111" width="28" height="28" fill="rgb(255,251,251)"/>
<text x="212.0" y="125.0" text-anchor="middle" dominant-baseline="central" class="val" font-size="7.5" fill="#333">0.02</text>
<rect x="226" y="111" width="28" height="28" fill="rgb(255,232,232)"/>
<text x="240.0" y="125.0" text-anchor="middle" dominant-baseline="central" class="val" font-size="7.5" fill="#333">-0.43</text>
<rect x="30" y="139" width="28" height="28" fill="rgb(255,243,243)"/>
<text x="44.0" y="153.0" text-anchor="middle" dominant-baseline="central" class="val" font-size="7.5" fill="#333">-0.16</text>
<rect x="58" y="139" width="28" height="28" fill="rgb(255,250,250)"/>
<text x="72.0" y="153.0" text-anchor="middle" dominant-baseline="central" class="val" font-size="7.5" fill="#333">0.03</text>
<rect x="86" y="139" width="28" height="28" fill="rgb(255,37,37)"/>
<text x="100.0" y="153.0" text-anchor="middle" dominant-baseline="central" class="val" font-size="7.5" fill="#fff">-0.35</text>
<rect x="114" y="139" width="28" height="28" fill="rgb(255,248,248)"/>
<text x="128.0" y="153.0" text-anchor="middle" dominant-baseline="central" class="val" font-size="7.5" fill="#333">0.11</text>
<rect x="142" y="139" width="28" height="28" fill="rgb(255,238,238)"/>
<text x="156.0" y="153.0" text-anchor="middle" dominant-baseline="central" class="val" font-size="7.5" fill="#333">-0.18</text>
<rect x="170" y="139" width="28" height="28" fill="rgb(255,230,230)"/>
<text x="184.0" y="153.0" text-anchor="middle" dominant-baseline="central" class="val" font-size="7.5" fill="#333">-0.09</text>
<rect x="198" y="139" width="28" height="28" fill="rgb(255,243,243)"/>
<text x="212.0" y="153.0" text-anchor="middle" dominant-baseline="central" class="val" font-size="7.5" fill="#333">-0.18</text>
<rect x="226" y="139" width="28" height="28" fill="rgb(255,217,217)"/>
<text x="240.0" y="153.0" text-anchor="middle" dominant-baseline="central" class="val" font-size="7.5" fill="#333">0.56</text>
<rect x="30" y="167" width="28" height="28" fill="rgb(255,251,251)"/>
<text x="44.0" y="181.0" text-anchor="middle" dominant-baseline="central" class="val" font-size="7.5" fill="#333">-0.00</text>
<rect x="58" y="167" width="28" height="28" fill="rgb(255,236,236)"/>
<text x="72.0" y="181.0" text-anchor="middle" dominant-baseline="central" class="val" font-size="7.5" fill="#333">-0.32</text>
<rect x="86" y="167" width="28" height="28" fill="rgb(255,80,80)"/>
<text x="100.0" y="181.0" text-anchor="middle" dominant-baseline="central" class="val" font-size="7.5" fill="#fff">0.25</text>
<rect x="114" y="167" width="28" height="28" fill="rgb(255,223,223)"/>
<text x="128.0" y="181.0" text-anchor="middle" dominant-baseline="central" class="val" font-size="7.5" fill="#333">-0.37</text>
<rect x="142" y="167" width="28" height="28" fill="rgb(255,249,249)"/>
<text x="156.0" y="181.0" text-anchor="middle" dominant-baseline="central" class="val" font-size="7.5" fill="#333">0.06</text>
<rect x="170" y="167" width="28" height="28" fill="rgb(255,30,30)"/>
<text x="184.0" y="181.0" text-anchor="middle" dominant-baseline="central" class="val" font-size="7.5" fill="#fff">-0.59</text>
<rect x="198" y="167" width="28" height="28" fill="rgb(255,207,207)"/>
<text x="212.0" y="181.0" text-anchor="middle" dominant-baseline="central" class="val" font-size="7.5" fill="#333">-0.40</text>
<rect x="226" y="167" width="28" height="28" fill="rgb(255,250,250)"/>
<text x="240.0" y="181.0" text-anchor="middle" dominant-baseline="central" class="val" font-size="7.5" fill="#333">0.06</text>
<rect x="30" y="195" width="28" height="28" fill="rgb(255,237,237)"/>
<text x="44.0" y="209.0" text-anchor="middle" dominant-baseline="central" class="val" font-size="7.5" fill="#333">0.22</text>
<rect x="58" y="195" width="28" height="28" fill="rgb(255,250,250)"/>
<text x="72.0" y="209.0" text-anchor="middle" dominant-baseline="central" class="val" font-size="7.5" fill="#333">0.05</text>
<rect x="86" y="195" width="28" height="28" fill="rgb(255,247,247)"/>
<text x="100.0" y="209.0" text-anchor="middle" dominant-baseline="central" class="val" font-size="7.5" fill="#333">-0.03</text>
<rect x="114" y="195" width="28" height="28" fill="rgb(255,249,249)"/>
<text x="128.0" y="209.0" text-anchor="middle" dominant-baseline="central" class="val" font-size="7.5" fill="#333">-0.09</text>
<rect x="142" y="195" width="28" height="28" fill="rgb(255,152,152)"/>
<text x="156.0" y="209.0" text-anchor="middle" dominant-baseline="central" class="val" font-size="7.5" fill="#333">-0.44</text>
<rect x="170" y="195" width="28" height="28" fill="rgb(255,93,93)"/>
<text x="184.0" y="209.0" text-anchor="middle" dominant-baseline="central" class="val" font-size="7.5" fill="#fff">-0.22</text>
<rect x="198" y="195" width="28" height="28" fill="rgb(255,246,246)"/>
<text x="212.0" y="209.0" text-anchor="middle" dominant-baseline="central" class="val" font-size="7.5" fill="#333">-0.14</text>
<rect x="226" y="195" width="28" height="28" fill="rgb(255,241,241)"/>
<text x="240.0" y="209.0" text-anchor="middle" dominant-baseline="central" class="val" font-size="7.5" fill="#333">0.32</text>
<rect x="30" y="223" width="28" height="28" fill="rgb(255,247,247)"/>
<text x="44.0" y="237.0" text-anchor="middle" dominant-baseline="central" class="val" font-size="7.5" fill="#333">0.10</text>
<rect x="58" y="223" width="28" height="28" fill="rgb(255,202,202)"/>
<text x="72.0" y="237.0" text-anchor="middle" dominant-baseline="central" class="val" font-size="7.5" fill="#333">-0.53</text>
<rect x="86" y="223" width="28" height="28" fill="rgb(255,229,229)"/>
<text x="100.0" y="237.0" text-anchor="middle" dominant-baseline="central" class="val" font-size="7.5" fill="#333">0.10</text>
<rect x="114" y="223" width="28" height="28" fill="rgb(255,248,248)"/>
<text x="128.0" y="237.0" text-anchor="middle" dominant-baseline="central" class="val" font-size="7.5" fill="#333">-0.12</text>
<rect x="142" y="223" width="28" height="28" fill="rgb(255,235,235)"/>
<text x="156.0" y="237.0" text-anchor="middle" dominant-baseline="central" class="val" font-size="7.5" fill="#333">-0.20</text>
<rect x="170" y="223" width="28" height="28" fill="rgb(255,132,132)"/>
<text x="184.0" y="237.0" text-anchor="middle" dominant-baseline="central" class="val" font-size="7.5" fill="#333">0.18</text>
<rect x="198" y="223" width="28" height="28" fill="rgb(255,227,227)"/>
<text x="212.0" y="237.0" text-anchor="middle" dominant-baseline="central" class="val" font-size="7.5" fill="#333">0.31</text>
<rect x="226" y="223" width="28" height="28" fill="rgb(255,243,243)"/>
<text x="240.0" y="237.0" text-anchor="middle" dominant-baseline="central" class="val" font-size="7.5" fill="#333">0.28</text>
<rect x="30" y="251" width="28" height="28" fill="rgb(255,233,233)"/>
<text x="44.0" y="265.0" text-anchor="middle" dominant-baseline="central" class="val" font-size="7.5" fill="#333">-0.25</text>
<rect x="58" y="251" width="28" height="28" fill="rgb(255,249,249)"/>
<text x="72.0" y="265.0" text-anchor="middle" dominant-baseline="central" class="val" font-size="7.5" fill="#333">-0.09</text>
<rect x="86" y="251" width="28" height="28" fill="rgb(255,228,228)"/>
<text x="100.0" y="265.0" text-anchor="middle" dominant-baseline="central" class="val" font-size="7.5" fill="#333">0.10</text>
<rect x="114" y="251" width="28" height="28" fill="rgb(255,234,234)"/>
<text x="128.0" y="265.0" text-anchor="middle" dominant-baseline="central" class="val" font-size="7.5" fill="#333">0.29</text>
<rect x="142" y="251" width="28" height="28" fill="rgb(255,243,243)"/>
<text x="156.0" y="265.0" text-anchor="middle" dominant-baseline="central" class="val" font-size="7.5" fill="#333">-0.14</text>
<rect x="170" y="251" width="28" height="28" fill="rgb(255,242,242)"/>
<text x="184.0" y="265.0" text-anchor="middle" dominant-baseline="central" class="val" font-size="7.5" fill="#333">-0.06</text>
<rect x="198" y="251" width="28" height="28" fill="rgb(255,222,222)"/>
<text x="212.0" y="265.0" text-anchor="middle" dominant-baseline="central" class="val" font-size="7.5" fill="#333">-0.33</text>
<rect x="226" y="251" width="28" height="28" fill="rgb(255,238,238)"/>
<text x="240.0" y="265.0" text-anchor="middle" dominant-baseline="central" class="val" font-size="7.5" fill="#333">-0.36</text>
<text x="293.5" y="167.0" text-anchor="middle" dominant-baseline="central" class="mr" font-size="24" fill="#555">×</text>
<text x="335.0" y="33" text-anchor="middle" class="mi" font-size="22" fill="#333">x</text>
<polyline points="316,51 309,51 309,283 316,283" fill="none" stroke="#888" stroke-width="1.8"/>
<polyline points="354,51 361,51 361,283 354,283" fill="none" stroke="#888" stroke-width="1.8"/>
<rect x="321" y="55" width="28" height="28" fill="rgb(255,122,122)"/>
<text x="335.0" y="69.0" text-anchor="middle" dominant-baseline="central" class="val" font-size="7.5" fill="#333">0.30</text>
<rect x="321" y="83" width="28" height="28" fill="rgb(255,187,187)"/>
<text x="335.0" y="97.0" text-anchor="middle" dominant-baseline="central" class="val" font-size="7.5" fill="#333">0.22</text>
<rect x="321" y="111" width="28" height="28" fill="rgb(255,30,30)"/>
<text x="335.0" y="125.0" text-anchor="middle" dominant-baseline="central" class="val" font-size="7.5" fill="#fff">0.85</text>
<rect x="321" y="139" width="28" height="28" fill="rgb(255,164,164)"/>
<text x="335.0" y="153.0" text-anchor="middle" dominant-baseline="central" class="val" font-size="7.5" fill="#333">0.25</text>
<rect x="321" y="167" width="28" height="28" fill="rgb(255,85,85)"/>
<text x="335.0" y="181.0" text-anchor="middle" dominant-baseline="central" class="val" font-size="7.5" fill="#fff">0.35</text>
<rect x="321" y="195" width="28" height="28" fill="rgb(255,30,30)"/>
<text x="335.0" y="209.0" text-anchor="middle" dominant-baseline="central" class="val" font-size="7.5" fill="#fff">0.92</text>
<rect x="321" y="223" width="28" height="28" fill="rgb(255,139,139)"/>
<text x="335.0" y="237.0" text-anchor="middle" dominant-baseline="central" class="val" font-size="7.5" fill="#333">0.28</text>
<rect x="321" y="251" width="28" height="28" fill="rgb(255,212,212)"/>
<text x="335.0" y="265.0" text-anchor="middle" dominant-baseline="central" class="val" font-size="7.5" fill="#333">0.18</text>
<text x="388.5" y="167.0" text-anchor="middle" dominant-baseline="central" class="mr" font-size="24" fill="#555">=</text>
<text x="430.0" y="33" text-anchor="middle" class="mi" font-size="22" fill="#333">y</text>
<polyline points="411,51 404,51 404,283 411,283" fill="none" stroke="#888" stroke-width="1.8"/>
<polyline points="449,51 456,51 456,283 449,283" fill="none" stroke="#888" stroke-width="1.8"/>
<rect x="416" y="55" width="28" height="28" fill="none"/>
<text x="430.0" y="69.0" text-anchor="middle" dominant-baseline="central" class="mr" font-size="16" fill="#999">⋯</text>
<rect x="416" y="83" width="28" height="28" fill="none"/>
<text x="430.0" y="97.0" text-anchor="middle" dominant-baseline="central" class="mr" font-size="16" fill="#999">⋯</text>
<rect x="416" y="111" width="28" height="28" fill="none"/>
<text x="430.0" y="125.0" text-anchor="middle" dominant-baseline="central" class="mr" font-size="16" fill="#999">⋯</text>
<rect x="416" y="139" width="28" height="28" fill="none"/>
<text x="430.0" y="153.0" text-anchor="middle" dominant-baseline="central" class="mr" font-size="16" fill="#999">⋯</text>
<rect x="416" y="167" width="28" height="28" fill="none"/>
<text x="430.0" y="181.0" text-anchor="middle" dominant-baseline="central" class="mr" font-size="16" fill="#999">⋯</text>
<rect x="416" y="195" width="28" height="28" fill="none"/>
<text x="430.0" y="209.0" text-anchor="middle" dominant-baseline="central" class="mr" font-size="16" fill="#999">⋯</text>
<rect x="416" y="223" width="28" height="28" fill="none"/>
<text x="430.0" y="237.0" text-anchor="middle" dominant-baseline="central" class="mr" font-size="16" fill="#999">⋯</text>
<rect x="416" y="251" width="28" height="28" fill="none"/>
<text x="430.0" y="265.0" text-anchor="middle" dominant-baseline="central" class="mr" font-size="16" fill="#999">⋯</text>
</svg>