<svg xmlns="http://www.w3.org/2000/svg" viewBox="0 0 472 120">
  <defs>
    <style>
      .val { font-family: 'SF Mono', 'Consolas', 'Liberation Mono', monospace; }
      .lbl { font-family: -apple-system, 'Segoe UI', Helvetica, sans-serif; }
    </style>
  </defs>
<rect x="20.0" y="20" width="48" height="30" fill="#f3f4f6" stroke="#aaa" stroke-width="1"/>
<text x="44.0" y="35.0" text-anchor="middle" dominant-baseline="central" class="val" font-size="9" fill="#555">42</text>
<rect x="68.0" y="20" width="48" height="30" fill="#f3f4f6" stroke="#aaa" stroke-width="1"/>
<text x="92.0" y="35.0" text-anchor="middle" dominant-baseline="central" class="val" font-size="9" fill="#555">187</text>
<rect x="116.0" y="20" width="48" height="30" fill="#f3f4f6" stroke="#aaa" stroke-width="1"/>
<text x="140.0" y="35.0" text-anchor="middle" dominant-baseline="central" class="val" font-size="9" fill="#555">3</text>
<rect x="164.0" y="20" width="48" height="30" fill="#f3f4f6" stroke="#aaa" stroke-width="1"/>
<text x="188.0" y="35.0" text-anchor="middle" dominant-baseline="central" class="val" font-size="9" fill="#555">91</text>
<rect x="212.0" y="20" width="48" height="30" fill="#fde68a" stroke="#aaa" stroke-width="1"/>
<text x="236.0" y="35.0" text-anchor="middle" dominant-baseline="central" class="val" font-size="9" fill="#92400e">PATCH</text>
<rect x="260.0" y="20" width="48" height="30" fill="#dbeafe" stroke="#aaa" stroke-width="1"/>
<text x="284.0" y="35.0" text-anchor="middle" dominant-baseline="central" class="val" font-size="9" fill="#2563eb">-0.31</text>
<rect x="308.0" y="20" width="48" height="30" fill="#dbeafe" stroke="#aaa" stroke-width="1"/>
<text x="332.0" y="35.0" text-anchor="middle" dominant-baseline="central" class="val" font-size="9" fill="#2563eb">0.18</text>
<rect x="356.0" y="20" width="48" height="30" fill="#f3f4f6" stroke="#aaa" stroke-width="1"/>
<text x="380.0" y="35.0" text-anchor="middle" dominant-baseline="central" class="val" font-size="9" fill="#555">56</text>
<rect x="404.0" y="20" width="48" height="30" fill="#f3f4f6" stroke="#aaa" stroke-width="1"/>
<text x="428.0" y="35.0" text-anchor="middle" dominant-baseline="central" class="val" font-size="9" fill="#555">210</text>
<line x1="24.0" y1="64" x2="208.0" y2="64" stroke="#888" stroke-width="0.8"/>
<line x1="24.0" y1="61" x2="24.0" y2="67" stroke="#888" stroke-width="0.8"/>
<line x1="208.0" y1="61" x2="208.0" y2="67" stroke="#888" stroke-width="0.8"/>
<text x="116.0" y="82" text-anchor="middle" class="lbl" font-size="9" fill="#555">Codebook Indices</text>
<line x1="264.0" y1="64" x2="352.0" y2="64" stroke="#888" stroke-width="0.8"/>
<line x1="264.0" y1="61" x2="264.0" y2="67" stroke="#888" stroke-width="0.8"/>
<line x1="352.0" y1="61" x2="352.0" y2="67" stroke="#888" stroke-width="0.8"/>
<text x="308.0" y="82" text-anchor="middle" class="lbl" font-size="9" fill="#555">Patch Values</text>
<line x1="360.0" y1="64" x2="448.0" y2="64" stroke="#888" stroke-width="0.8"/>
<line x1="360.0" y1="61" x2="360.0" y2="67" stroke="#888" stroke-width="0.8"/>
<line x1="448.0" y1="61" x2="448.0" y2="67" stroke="#888" stroke-width="0.8"/>
<text x="404.0" y="82" text-anchor="middle" class="lbl" font-size="9" fill="#555">Codebook Indices</text>
</svg>